<?xml version="1.0" standalone="no"?>
<!DOCTYPE svg PUBLIC "-//W3C//DTD SVG 20010904//EN"
 "http://www.w3.org/TR/2001/REC-SVG-20010904/DTD/svg10.dtd">
<svg version="1.0" xmlns="http://www.w3.org/2000/svg"
 width="400.000000pt" height="200.000000pt" viewBox="0 0 400.000000 200.000000"
 preserveAspectRatio="xMidYMid meet">

<g transform="translate(0.000000,200.000000) scale(0.100000,-0.100000)"
fill="#000000" stroke="none">
<path d="M1000 1325 l0 -174 -39 -11 c-106 -28 -109 -165 -5 -211 40 -18 44
-23 44 -54 0 -40 -11 -43 -67 -20 -49 20 -53 19 -53 -14 0 -49 10 -60 66 -77
l54 -15 0 -130 0 -129 1005 0 1005 0 0 130 c0 117 2 130 18 130 9 0 34 5 55
11 36 10 38 12 35 47 -3 32 -6 37 -28 36 -14 0 -37 -4 -52 -9 -24 -6 -28 -4
-28 14 0 19 6 21 60 21 l60 0 0 35 c0 20 -7 49 -15 64 -17 34 -70 81 -91 81
-12 0 -14 37 -14 225 l0 225 -1005 0 -1005 0 0 -175z m1980 -59 l0 -204 -42
-7 c-56 -10 -107 -60 -110 -107 -1 -18 -5 55 -8 162 l-5 195 -810 0 -810 0 0
-310 0 -310 810 0 810 0 6 110 c3 61 6 99 7 86 3 -40 41 -89 86 -110 23 -12
48 -21 54 -21 9 0 12 -33 12 -115 l0 -115 -975 0 -975 0 0 115 0 115 25 0 c38
0 90 25 109 51 9 13 16 43 16 67 0 37 -6 50 -33 77 -19 19 -47 37 -63 40 -51
12 -54 14 -54 45 0 25 4 30 24 30 13 0 42 -7 65 -15 l41 -14 0 38 c0 42 -11
56 -53 65 -15 3 -38 8 -52 11 l-25 5 0 160 0 160 975 0 975 0 0 -204z m-190
-271 l0 -285 -785 0 -785 0 1 98 c1 63 4 86 8 67 22 -92 126 -146 229 -119 19
6 23 12 20 43 l-3 36 -57 -3 c-51 -4 -58 -2 -73 22 -22 33 -13 89 18 111 25
17 70 20 98 5 17 -10 19 -7 19 23 0 42 -13 54 -66 63 -83 13 -169 -31 -184
-96 -5 -23 -8 26 -9 143 l-1 177 785 0 785 0 0 -285z m-1794 18 c-11 -11 -19
6 -11 24 8 17 8 17 12 0 3 -10 2 -21 -1 -24z m1984 -53 c0 -13 -7 -20 -20 -20
-25 0 -26 16 -2 29 23 14 22 14 22 -9z m50 -11 c0 -5 -4 -9 -10 -9 -5 0 -10 7
-10 16 0 8 5 12 10 9 6 -3 10 -10 10 -16z m-1956 -64 c5 -15 -18 -45 -35 -45
-5 0 -9 14 -9 30 0 23 5 30 19 30 10 0 21 -7 25 -15z m1906 -35 c0 -22 -20
-26 -38 -8 -19 19 -14 28 13 28 18 0 25 -5 25 -20z"/>
<path d="M1780 1122 c0 -49 14 -62 67 -62 l43 0 0 38 c0 49 -14 62 -67 62
l-43 0 0 -38z"/>
<path d="M1950 972 c0 -133 4 -192 12 -200 7 -7 31 -12 55 -12 33 0 43 4 43
17 0 15 1 15 19 -1 47 -43 136 -25 166 34 19 37 19 132 0 170 -32 62 -103 93
-155 67 l-30 -15 0 52 c0 63 -11 76 -67 76 l-43 0 0 -188z m200 -11 c25 -47
-3 -131 -43 -131 -13 0 -28 5 -35 12 -17 17 -15 89 4 116 19 27 60 29 74 3z"/>
<path d="M2310 972 c0 -133 4 -192 12 -200 7 -7 31 -12 55 -12 33 0 43 4 43
17 0 15 1 15 19 -1 47 -43 136 -25 166 34 19 37 19 132 0 170 -32 62 -103 93
-155 67 l-30 -15 0 52 c0 63 -11 76 -67 76 l-43 0 0 -188z m200 -11 c25 -47
-3 -131 -43 -131 -13 0 -28 5 -35 12 -17 17 -15 89 4 116 19 27 60 29 74 3z"/>
<path d="M2670 972 c0 -133 4 -192 12 -200 7 -7 31 -12 55 -12 l43 0 0 188 c0
133 -4 192 -12 200 -7 7 -31 12 -55 12 l-43 0 0 -188z"/>
<path d="M1673 1045 c-19 -8 -35 -10 -38 -4 -4 5 -26 9 -51 9 l-44 0 0 -133
c0 -90 4 -137 12 -145 7 -7 31 -12 55 -12 l43 0 0 85 c0 73 3 88 21 106 15 15
30 20 55 17 33 -4 34 -3 34 32 0 59 -26 72 -87 45z"/>
<path d="M1780 917 c0 -90 4 -137 12 -145 7 -7 31 -12 55 -12 l43 0 0 133 c0
90 -4 137 -12 145 -7 7 -31 12 -55 12 l-43 0 0 -133z"/>
</g>
</svg>
